<svg width="18" height="18" viewBox="0 0 18 18" fill="none" xmlns="http://www.w3.org/2000/svg">
<path d="M9.00528 1.61811C11.4114 1.61811 11.6963 1.62867 12.6426 1.67088C13.522 1.70957 13.9969 1.85732 14.3135 1.98044C14.7321 2.14225 15.0346 2.33924 15.3477 2.65231C15.6643 2.9689 15.8577 3.26791 16.0195 3.68651C16.1427 4.0031 16.2904 4.48151 16.3291 5.35741C16.3713 6.30719 16.3819 6.59212 16.3819 8.9947C16.3819 11.4008 16.3713 11.6857 16.3291 12.632C16.2904 13.5114 16.1427 13.9863 16.0195 14.3029C15.8577 14.7215 15.6607 15.024 15.3477 15.3371C15.0311 15.6537 14.7321 15.8472 14.3135 16.009C13.9969 16.1321 13.5185 16.2798 12.6426 16.3185C11.6928 16.3607 11.4079 16.3713 9.00528 16.3713C6.59918 16.3713 6.31425 16.3607 5.36799 16.3185C4.48857 16.2798 4.01368 16.1321 3.69709 16.009C3.27848 15.8472 2.97596 15.6502 2.66289 15.3371C2.3463 15.0205 2.15282 14.7215 1.99101 14.3029C1.86789 13.9863 1.72015 13.5079 1.68145 12.632C1.63924 11.6822 1.62869 11.3973 1.62869 8.9947C1.62869 6.5886 1.63924 6.30367 1.68145 5.35741C1.72015 4.47799 1.86789 4.0031 1.99101 3.68651C2.15282 3.26791 2.34981 2.96539 2.66289 2.65231C2.97948 2.33572 3.27848 2.14225 3.69709 1.98044C4.01368 1.85732 4.49209 1.70957 5.36799 1.67088C6.31425 1.62867 6.59918 1.61811 9.00528 1.61811ZM9.00528 -0.00354004C6.56048 -0.00354004 6.25445 0.00701302 5.29412 0.0492253C4.33731 0.0914375 3.6795 0.246216 3.10963 0.46783C2.51515 0.699997 2.01212 1.00604 1.51261 1.50907C1.00958 2.00858 0.703537 2.51161 0.47137 3.10258C0.249756 3.67596 0.0949775 4.33025 0.0527653 5.28706C0.0105531 6.25091 0 6.55694 0 9.00174C0 11.4465 0.0105531 11.7526 0.0527653 12.7129C0.0949775 13.6697 0.249756 14.3275 0.47137 14.8974C0.703537 15.4919 1.00958 15.9949 1.51261 16.4944C2.01212 16.9939 2.51515 17.3035 3.10612 17.5321C3.6795 17.7537 4.33379 17.9085 5.2906 17.9507C6.25093 17.9929 6.55697 18.0035 9.00176 18.0035C11.4466 18.0035 11.7526 17.9929 12.7129 17.9507C13.6697 17.9085 14.3275 17.7537 14.8974 17.5321C15.4884 17.3035 15.9914 16.9939 16.4909 16.4944C16.9904 15.9949 17.3 15.4919 17.5286 14.9009C17.7502 14.3275 17.905 13.6732 17.9472 12.7164C17.9894 11.7561 18 11.45 18 9.00525C18 6.56046 17.9894 6.25442 17.9472 5.2941C17.905 4.33728 17.7502 3.67948 17.5286 3.10961C17.307 2.51161 17.001 2.00858 16.4979 1.50907C15.9984 1.00955 15.4954 0.699997 14.9044 0.471348C14.3311 0.249733 13.6768 0.0949552 12.72 0.0527429C11.7561 0.00701302 11.4501 -0.00354004 9.00528 -0.00354004Z" fill="white"/>
<path d="M9.00528 4.37598C6.45144 4.37598 4.37952 6.4479 4.37952 9.00174C4.37952 11.5556 6.45144 13.6275 9.00528 13.6275C11.5591 13.6275 13.631 11.5556 13.631 9.00174C13.631 6.4479 11.5591 4.37598 9.00528 4.37598ZM9.00528 12.0023C7.34845 12.0023 6.00469 10.6586 6.00469 9.00174C6.00469 7.34491 7.34845 6.00115 9.00528 6.00115C10.6621 6.00115 12.0059 7.34491 12.0059 9.00174C12.0059 10.6586 10.6621 12.0023 9.00528 12.0023Z" fill="white"/>
<path d="M14.8939 4.19302C14.8939 4.79103 14.4084 5.27295 13.814 5.27295C13.2159 5.27295 12.734 4.78751 12.734 4.19302C12.734 3.59502 13.2195 3.11309 13.814 3.11309C14.4084 3.11309 14.8939 3.59853 14.8939 4.19302Z" fill="white"/>
</svg>
