<svg width="17" height="10" viewBox="0 0 17 10" fill="none" xmlns="http://www.w3.org/2000/svg">
<path d="M0.0176479 0.373543C0.118493 2.59814 0.640368 4.54437 1.51772 5.98144C1.58831 6.09803 1.6463 6.19795 1.6463 6.20271C1.6463 6.2384 2.30684 7.12824 2.37491 7.18534C2.38247 7.19248 2.46315 7.27576 2.55391 7.3733C3.51194 8.41066 4.74981 9.15774 6.22216 9.58601C7.06674 9.83107 7.96678 9.96193 9.00297 9.98572L9.58787 10V8.20842V6.41685L9.78452 6.43112C10.0291 6.45253 10.4829 6.55722 10.8106 6.6738C11.9829 7.08779 12.9485 7.9134 13.5939 9.05306C13.7049 9.24816 13.9318 9.74542 13.9772 9.89055L14.0074 9.99286H15.505C16.4983 9.99286 17 9.98572 17 9.96907C17 9.95479 16.9546 9.81442 16.8992 9.65501C16.5437 8.64145 15.9941 7.70878 15.3134 6.95931C14.6201 6.19557 13.783 5.55318 12.941 5.13205C12.7948 5.05829 12.6763 4.98929 12.6763 4.9774C12.6763 4.9655 12.8074 4.87271 12.9662 4.77278C13.2309 4.60148 13.4704 4.43255 13.6973 4.24935C13.952 4.04235 14.5772 3.42375 14.8016 3.15251C14.9453 2.9812 15.0739 2.82893 15.089 2.8099C15.273 2.59814 15.8201 1.6631 15.9487 1.34428C15.9689 1.29193 16.0092 1.19439 16.0394 1.12539C16.1403 0.889841 16.3697 0.114204 16.3697 0.00713825C16.3697 0.00237942 15.7571 0 15.0108 0H13.6519L13.5965 0.15941C13.425 0.680467 13.0166 1.47038 12.7595 1.78682C12.7216 1.8344 12.6889 1.88199 12.6889 1.89151C12.6889 1.9153 12.4746 2.17702 12.2577 2.41494C12.0687 2.62432 11.756 2.91934 11.5291 3.10255C11.1812 3.3833 10.6669 3.66405 10.2055 3.82822C10.0971 3.86629 9.7114 3.94956 9.64585 3.94956H9.58787V1.97478V0H8.22646H6.86505V3.46181C6.86505 6.87128 6.86505 6.92363 6.81714 6.92363C6.74151 6.92363 6.42385 6.8118 6.16669 6.69284C5.61204 6.43826 5.06244 6.01237 4.61619 5.48656C4.43972 5.27718 4.34391 5.15108 4.12709 4.82513C4.02877 4.67999 3.74136 4.12087 3.63295 3.86629C3.43378 3.39995 3.23713 2.75755 3.13125 2.2246C3.00771 1.61313 2.90687 0.687605 2.90687 0.183203V0H1.45217H0L0.0176479 0.373543Z" fill="#F3FEFF"/>
</svg>
